<svg width="611" height="356" viewBox="0 0 611 356" fill="none" xmlns="http://www.w3.org/2000/svg">
<path d="M93.2956 40.6529C93.2956 40.6529 -5.42296 197.159 5.9054 242.452C17.2338 287.746 63.761 355.686 93.2956 349.62C122.83 343.554 180.686 242.452 195.251 242.452H305.298H415.749C430.314 242.452 488.17 343.554 517.704 349.62C547.239 355.686 593.766 287.746 605.095 242.452C616.423 197.159 517.704 40.6529 517.704 40.6529C495.926 11.7045 439.488 1.05571 415.749 6.2783C392.011 11.5009 397.947 23.2634 384.192 23.2634H305.298L226.808 23.2634C213.053 23.2634 218.989 11.5009 195.251 6.27829C171.512 1.05569 115.074 11.7044 93.2956 40.6529Z" fill="#A68DC7"/>
<path d="M93.2956 40.6529C93.2956 40.6529 -5.42296 197.159 5.9054 242.452C17.2338 287.746 63.761 355.686 93.2956 349.62C122.83 343.554 180.686 242.452 195.251 242.452H305.298H415.749C430.314 242.452 488.17 343.554 517.704 349.62C547.239 355.686 593.766 287.746 605.095 242.452C616.423 197.159 517.704 40.6529 517.704 40.6529C495.926 11.7045 439.488 1.05571 415.749 6.2783C392.011 11.5009 397.947 23.2634 384.192 23.2634H305.298L226.808 23.2634C213.053 23.2634 218.989 11.5009 195.251 6.27829C171.512 1.05569 115.074 11.7044 93.2956 40.6529Z" fill="url(#paint0_linear)" fill-opacity="0.4"/>
<path d="M93.2956 40.6529C93.2956 40.6529 -5.42296 197.159 5.9054 242.452C17.2338 287.746 63.761 355.686 93.2956 349.62C122.83 343.554 180.686 242.452 195.251 242.452H305.298H415.749C430.314 242.452 488.17 343.554 517.704 349.62C547.239 355.686 593.766 287.746 605.095 242.452C616.423 197.159 517.704 40.6529 517.704 40.6529C495.926 11.7045 439.488 1.05571 415.749 6.2783C392.011 11.5009 397.947 23.2634 384.192 23.2634H305.298L226.808 23.2634C213.053 23.2634 218.989 11.5009 195.251 6.27829C171.512 1.05569 115.074 11.7044 93.2956 40.6529Z" stroke="#A68DC7" stroke-width="10"/>
<path fill-rule="evenodd" clip-rule="evenodd" d="M519.449 123.229C517.927 133.345 509.199 141.1 498.658 141.1C488.118 141.1 479.39 133.345 477.868 123.229C477.713 124.258 477.633 125.311 477.633 126.383C477.633 137.995 487.046 147.408 498.658 147.408C510.271 147.408 519.684 137.995 519.684 126.383C519.684 125.311 519.604 124.258 519.449 123.229Z" fill="#A68DC7"/>
<path fill-rule="evenodd" clip-rule="evenodd" d="M466.076 77.9429C464.555 88.0588 455.826 95.8146 445.286 95.8146C434.746 95.8146 426.017 88.0588 424.495 77.9429C424.341 78.9716 424.26 80.0248 424.26 81.0967C424.26 92.7088 433.674 102.122 445.286 102.122C456.898 102.122 466.311 92.7088 466.311 81.0967C466.311 80.0248 466.231 78.9716 466.076 77.9429Z" fill="#A68DC7"/>
<path fill-rule="evenodd" clip-rule="evenodd" d="M416.747 123.229C415.225 133.345 406.497 141.1 395.957 141.1C385.416 141.1 376.688 133.345 375.166 123.229C375.011 124.258 374.931 125.311 374.931 126.383C374.931 137.995 384.344 147.408 395.957 147.408C407.569 147.408 416.982 137.995 416.982 126.383C416.982 125.311 416.902 124.258 416.747 123.229Z" fill="#A68DC7"/>
<path fill-rule="evenodd" clip-rule="evenodd" d="M466.076 166.897C464.555 177.013 455.826 184.769 445.286 184.769C434.746 184.769 426.017 177.013 424.495 166.897C424.341 167.926 424.26 168.979 424.26 170.051C424.26 181.663 433.674 191.076 445.286 191.076C456.898 191.076 466.311 181.663 466.311 170.051C466.311 168.979 466.231 167.926 466.076 166.897Z" fill="#A68DC7"/>
<defs>
<linearGradient id="paint0_linear" x1="305.5" y1="5" x2="305.5" y2="350" gradientUnits="userSpaceOnUse">
<stop stop-color="#FF0000"/>
<stop offset="1" stop-color="#FF0000" stop-opacity="0"/>
</linearGradient>
</defs>
</svg>
