<svg width="135" height="100" viewBox="0 0 135 100" fill="none" xmlns="http://www.w3.org/2000/svg">
<path fill-rule="evenodd" clip-rule="evenodd" d="M10.324 69.6723L23.0844 56.8956L35.8448 69.6723L48.6052 56.8956L61.3656 69.6723C61.3656 69.6723 70.0244 22.6723 35.8448 22.6723C1.66514 22.6723 10.324 69.6723 10.324 69.6723ZM24.3382 39.8588C24.3382 38.6966 25.0356 37.7544 26.4303 37.7544C27.825 37.7544 28.5224 38.4558 28.5224 39.8588C28.5224 41.2618 27.825 41.9633 26.4303 41.9633C25.0356 41.9633 24.3382 41.0211 24.3382 39.8588ZM43.1671 39.8588C43.1671 38.6966 43.8645 37.7544 45.2593 37.7544C46.654 37.7544 47.3514 38.4558 47.3514 39.8588C47.3514 41.2618 46.654 41.9633 45.2592 41.9633C43.8645 41.9633 43.1671 41.0211 43.1671 39.8588Z" fill="url(#paint0_radial)"/>
<path fill-rule="evenodd" clip-rule="evenodd" d="M77.3239 69.6722L90.0842 56.8955L102.845 69.6722L115.605 56.8955L128.365 69.6722C128.365 69.6722 137.024 22.6722 102.845 22.6722C68.665 22.6722 77.3239 69.6722 77.3239 69.6722ZM91.3381 39.8588C91.3381 38.6965 92.0354 37.7543 93.4302 37.7543C94.8249 37.7543 95.5223 38.4558 95.5223 39.8588C95.5223 41.2618 94.8249 41.9633 93.4302 41.9633C92.0355 41.9633 91.3381 41.0211 91.3381 39.8588ZM110.167 39.8588C110.167 38.6965 110.864 37.7543 112.259 37.7543C113.654 37.7543 114.351 38.4558 114.351 39.8588C114.351 41.2618 113.654 41.9633 112.259 41.9633C110.864 41.9633 110.167 41.0211 110.167 39.8588Z" fill="url(#paint1_radial)"/>
<defs>
<radialGradient id="paint0_radial" cx="0" cy="0" r="1" gradientUnits="userSpaceOnUse" gradientTransform="translate(-82.7191 49.778) rotate(2.08309) scale(214.462 593.924)">
<stop stop-color="white"/>
<stop offset="0.677083" stop-color="white" stop-opacity="0.13"/>
<stop offset="1" stop-color="white" stop-opacity="0"/>
</radialGradient>
<radialGradient id="paint1_radial" cx="0" cy="0" r="1" gradientUnits="userSpaceOnUse" gradientTransform="translate(-82.7191 49.778) rotate(2.08309) scale(214.462 593.924)">
<stop stop-color="white"/>
<stop offset="0.677083" stop-color="white" stop-opacity="0.13"/>
<stop offset="1" stop-color="white" stop-opacity="0"/>
</radialGradient>
</defs>
</svg>
