<svg width="269" height="100" viewBox="0 3 269 100" fill="none" xmlns="http://www.w3.org/2000/svg">
<path fill-rule="evenodd" clip-rule="evenodd" d="M10.3239 73.6722L23.0843 60.8955L35.8448 73.6722L48.6052 60.8955L61.3656 73.6722C61.3656 73.6722 70.0244 26.6722 35.8448 26.6722C1.6651 26.6722 10.3239 73.6722 10.3239 73.6722ZM24.3382 43.8588C24.3382 42.6965 25.0355 41.7543 26.4303 41.7543C27.825 41.7543 28.5224 42.4558 28.5224 43.8588C28.5224 45.2618 27.825 45.9632 26.4303 45.9632C25.0355 45.9632 24.3382 45.021 24.3382 43.8588ZM43.1671 43.8588C43.1671 42.6965 43.8645 41.7543 45.2592 41.7543C46.654 41.7543 47.3513 42.4558 47.3513 43.8588C47.3513 45.2618 46.654 45.9632 45.2592 45.9632C43.8645 45.9632 43.1671 45.021 43.1671 43.8588Z" fill="url(#paint0_radial)"/>
<path fill-rule="evenodd" clip-rule="evenodd" d="M77.3239 73.6722L90.0843 60.8955L102.845 73.6722L115.605 60.8955L128.366 73.6722C128.366 73.6722 137.024 26.6722 102.845 26.6722C68.6651 26.6722 77.3239 73.6722 77.3239 73.6722ZM91.3381 43.8588C91.3381 42.6965 92.0355 41.7543 93.4302 41.7543C94.825 41.7543 95.5223 42.4558 95.5223 43.8588C95.5223 45.2618 94.825 45.9633 93.4302 45.9633C92.0355 45.9633 91.3381 45.0211 91.3381 43.8588ZM110.167 43.8588C110.167 42.6965 110.864 41.7543 112.259 41.7543C113.654 41.7543 114.351 42.4558 114.351 43.8588C114.351 45.2618 113.654 45.9633 112.259 45.9633C110.864 45.9633 110.167 45.0211 110.167 43.8588Z" fill="url(#paint1_radial)"/>
<path fill-rule="evenodd" clip-rule="evenodd" d="M144.324 73.6722L157.084 60.8955L169.845 73.6722L182.605 60.8955L195.366 73.6722C195.366 73.6722 204.024 26.6722 169.845 26.6722C135.665 26.6722 144.324 73.6722 144.324 73.6722ZM158.338 43.8588C158.338 42.6965 159.036 41.7543 160.43 41.7543C161.825 41.7543 162.522 42.4558 162.522 43.8588C162.522 45.2618 161.825 45.9633 160.43 45.9633C159.036 45.9633 158.338 45.0211 158.338 43.8588ZM177.167 43.8588C177.167 42.6965 177.864 41.7543 179.259 41.7543C180.654 41.7543 181.351 42.4558 181.351 43.8588C181.351 45.2618 180.654 45.9633 179.259 45.9633C177.864 45.9633 177.167 45.0211 177.167 43.8588Z" fill="url(#paint2_radial)"/>
<path fill-rule="evenodd" clip-rule="evenodd" d="M211.324 73.6722L224.084 60.8955L236.845 73.6722L249.605 60.8955L262.366 73.6722C262.366 73.6722 271.024 26.6722 236.845 26.6722C202.665 26.6722 211.324 73.6722 211.324 73.6722ZM225.338 43.8588C225.338 42.6965 226.036 41.7543 227.43 41.7543C228.825 41.7543 229.522 42.4558 229.522 43.8588C229.522 45.2618 228.825 45.9633 227.43 45.9633C226.036 45.9633 225.338 45.0211 225.338 43.8588ZM244.167 43.8588C244.167 42.6965 244.864 41.7543 246.259 41.7543C247.654 41.7543 248.351 42.4558 248.351 43.8588C248.351 45.2618 247.654 45.9633 246.259 45.9633C244.864 45.9633 244.167 45.0211 244.167 43.8588Z" fill="url(#paint3_radial)"/>
<defs>
<radialGradient id="paint0_radial" cx="0" cy="0" r="1" gradientUnits="userSpaceOnUse" gradientTransform="translate(217.281 53.7779) rotate(2.08309) scale(214.462 593.924)">
<stop stop-color="white"/>
<stop offset="0.677083" stop-color="white" stop-opacity="0.13"/>
<stop offset="1" stop-color="white" stop-opacity="0"/>
</radialGradient>
<radialGradient id="paint1_radial" cx="0" cy="0" r="1" gradientUnits="userSpaceOnUse" gradientTransform="translate(217.281 53.7779) rotate(2.08309) scale(214.462 593.924)">
<stop stop-color="white"/>
<stop offset="0.677083" stop-color="white" stop-opacity="0.13"/>
<stop offset="1" stop-color="white" stop-opacity="0"/>
</radialGradient>
<radialGradient id="paint2_radial" cx="0" cy="0" r="1" gradientUnits="userSpaceOnUse" gradientTransform="translate(217.281 53.7779) rotate(2.08309) scale(214.462 593.924)">
<stop stop-color="white"/>
<stop offset="0.677083" stop-color="white" stop-opacity="0.13"/>
<stop offset="1" stop-color="white" stop-opacity="0"/>
</radialGradient>
<radialGradient id="paint3_radial" cx="0" cy="0" r="1" gradientUnits="userSpaceOnUse" gradientTransform="translate(217.281 53.7779) rotate(2.08309) scale(214.462 593.924)">
<stop stop-color="white"/>
<stop offset="0.677083" stop-color="white" stop-opacity="0.13"/>
<stop offset="1" stop-color="white" stop-opacity="0"/>
</radialGradient>
</defs>
</svg>
