<svg width="589" height="559" viewBox="0 0 589 559" fill="none" xmlns="http://www.w3.org/2000/svg">
<path d="M149.056 372.98L3.35406e-06 431.026L92.3924 438.757L113.715 528.987L149.056 372.98Z" fill="white"/>
<path d="M134 388L521 3" stroke="url(#paint0_linear)" stroke-width="5" stroke-linecap="round" stroke-dasharray="10 30"/>
<path d="M463.041 385.804C460.323 375.662 478.322 371.356 480.911 381.016C483.499 390.675 472.028 386.502 473.969 393.746M476.529 403.301L475.392 399.059M435.847 377.044L443.625 363.571L486.126 352.183L499.598 359.962L510.986 402.462L503.208 415.935L460.707 427.323L447.235 419.544L435.847 377.044Z" stroke="white" stroke-width="4"/>
<path d="M535.168 427.447C532.451 417.304 550.45 412.999 553.038 422.659C555.626 432.318 544.155 428.144 546.096 435.389M548.657 444.944L547.52 440.702M507.974 418.686L515.753 405.214L558.253 393.826L571.726 401.604L583.114 444.105L575.335 457.577L532.835 468.965L519.362 461.187L507.974 418.686Z" stroke="white" stroke-width="4"/>
<path d="M504.628 313.467C501.91 303.325 519.909 299.02 522.497 308.679C525.086 318.339 513.615 314.165 515.556 321.41M518.116 330.964L516.979 326.722M477.434 304.707L485.212 291.235L527.713 279.847L541.185 287.625L552.573 330.126L544.795 343.598L502.294 354.986L488.822 347.208L477.434 304.707Z" stroke="white" stroke-width="4"/>
<path d="M495.171 232.164C504.252 231.283 510.152 235.914 514.06 244.702M488.495 224.635C470.142 229.553 463.418 245.028 467.635 260.765C471.852 276.502 488.028 285.842 503.765 281.625C519.502 277.408 528.842 261.232 524.625 245.495C520.408 229.758 506.847 219.718 488.495 224.635Z" stroke="white" stroke-width="4"/>
<path d="M404.527 469.023L400.763 455.538M404.527 469.023L408.29 482.508M404.527 469.023L419.456 464.856M458.466 453.969L447.389 457.061M400.763 455.538L397 442.054L411.929 437.887M400.763 455.538L415.693 451.372M454.702 440.485L450.939 427L439.862 430.091M454.702 440.485L462.229 467.454M454.702 440.485L443.625 443.576M408.29 482.508L412.054 495.992L439.023 488.466M408.29 482.508L423.22 478.341M462.229 467.454L465.992 480.939L439.023 488.466M462.229 467.454L451.152 470.545M411.929 437.887L415.693 451.372M411.929 437.887L439.862 430.091M415.693 451.372L427.733 448.011M443.625 443.576L439.862 430.091M443.625 443.576L427.733 448.011M427.733 448.011L431.496 461.496M431.496 461.496L419.456 464.856M431.496 461.496L447.389 457.061M419.456 464.856L423.22 478.341M423.22 478.341L435.26 474.981M447.389 457.061L451.152 470.545M451.152 470.545L435.26 474.981M435.26 474.981L439.023 488.466" stroke="white" stroke-width="4"/>
<path d="M350.527 484.023L346.763 470.538M350.527 484.023L354.29 497.508M350.527 484.023L365.456 479.856M404.466 468.969L393.389 472.061M346.763 470.538L343 457.054L357.929 452.887M346.763 470.538L361.693 466.372M400.702 455.485L396.939 442L385.862 445.091M400.702 455.485L408.229 482.454M400.702 455.485L389.625 458.576M354.29 497.508L358.054 510.992L385.023 503.466M354.29 497.508L369.22 493.341M408.229 482.454L411.992 495.939L385.023 503.466M408.229 482.454L397.152 485.545M357.929 452.887L361.693 466.372M357.929 452.887L385.862 445.091M361.693 466.372L373.733 463.011M389.625 458.576L385.862 445.091M389.625 458.576L373.733 463.011M373.733 463.011L377.496 476.496M377.496 476.496L365.456 479.856M377.496 476.496L393.389 472.061M365.456 479.856L369.22 493.341M369.22 493.341L381.26 489.981M393.389 472.061L397.152 485.545M397.152 485.545L381.26 489.981M381.26 489.981L385.023 503.466" stroke="white" stroke-width="4"/>
<path d="M188.527 529.023L184.763 515.538M188.527 529.023L192.29 542.508M188.527 529.023L203.456 524.856M242.466 513.969L231.389 517.061M184.763 515.538L181 502.054L195.929 497.887M184.763 515.538L199.693 511.372M238.702 500.485L234.939 487L223.862 490.091M238.702 500.485L246.229 527.454M238.702 500.485L227.625 503.576M192.29 542.508L196.054 555.992L223.023 548.466M192.29 542.508L207.22 538.341M246.229 527.454L249.992 540.939L223.023 548.466M246.229 527.454L235.152 530.545M195.929 497.887L199.693 511.372M195.929 497.887L223.862 490.091M199.693 511.372L211.733 508.011M227.625 503.576L223.862 490.091M227.625 503.576L211.733 508.011M211.733 508.011L215.496 521.496M215.496 521.496L203.456 524.856M215.496 521.496L231.389 517.061M203.456 524.856L207.22 538.341M207.22 538.341L219.26 534.981M231.389 517.061L235.152 530.545M235.152 530.545L219.26 534.981M219.26 534.981L223.023 548.466" stroke="white" stroke-width="4"/>
<path d="M242.527 514.023L238.763 500.538M242.527 514.023L246.29 527.508M242.527 514.023L257.456 509.856M296.466 498.969L285.389 502.061M238.763 500.538L235 487.054L249.929 482.887M238.763 500.538L253.693 496.372M292.702 485.485L288.939 472L277.862 475.091M292.702 485.485L300.229 512.454M292.702 485.485L281.625 488.576M246.29 527.508L250.054 540.992L277.023 533.466M246.29 527.508L261.22 523.341M300.229 512.454L303.992 525.939L277.023 533.466M300.229 512.454L289.152 515.545M249.929 482.887L253.693 496.372M249.929 482.887L277.862 475.091M253.693 496.372L265.733 493.011M281.625 488.576L277.862 475.091M281.625 488.576L265.733 493.011M265.733 493.011L269.496 506.496M269.496 506.496L257.456 509.856M269.496 506.496L285.389 502.061M257.456 509.856L261.22 523.341M261.22 523.341L273.26 519.981M285.389 502.061L289.152 515.545M289.152 515.545L273.26 519.981M273.26 519.981L277.023 533.466" stroke="white" stroke-width="4"/>
<path d="M296.527 499.023L292.763 485.538M296.527 499.023L300.29 512.508M296.527 499.023L311.456 494.856M350.466 483.969L339.389 487.061M292.763 485.538L289 472.054L303.929 467.887M292.763 485.538L307.693 481.372M346.702 470.485L342.939 457L331.862 460.091M346.702 470.485L354.229 497.454M346.702 470.485L335.625 473.576M300.29 512.508L304.054 525.992L331.023 518.466M300.29 512.508L315.22 508.341M354.229 497.454L357.992 510.939L331.023 518.466M354.229 497.454L343.152 500.545M303.929 467.887L307.693 481.372M303.929 467.887L331.862 460.091M307.693 481.372L319.733 478.011M335.625 473.576L331.862 460.091M335.625 473.576L319.733 478.011M319.733 478.011L323.496 491.496M323.496 491.496L311.456 494.856M323.496 491.496L339.389 487.061M311.456 494.856L315.22 508.341M315.22 508.341L327.26 504.981M339.389 487.061L343.152 500.545M343.152 500.545L327.26 504.981M327.26 504.981L331.023 518.466" stroke="white" stroke-width="4"/>
<defs>
<linearGradient id="paint0_linear" x1="327.5" y1="3" x2="327.5" y2="388" gradientUnits="userSpaceOnUse">
<stop offset="0.0989583" stop-color="white" stop-opacity="0"/>
<stop offset="1" stop-color="white"/>
</linearGradient>
</defs>
</svg>
