<svg width="93" height="19" viewBox="0 0 93 19" fill="none" xmlns="http://www.w3.org/2000/svg">
<path d="M0.556346 0.949999H7.67285C9.32118 0.949999 10.7832 1.25817 12.0588 1.8745C13.3345 2.49083 14.3235 3.36517 15.0258 4.4975C15.7282 5.62983 16.0793 6.95567 16.0793 8.475C16.0793 9.99433 15.7282 11.3202 15.0258 12.4525C14.3235 13.5848 13.3345 14.4592 12.0588 15.0755C10.7832 15.6918 9.32118 16 7.67285 16H0.556346V0.949999ZM7.50085 12.603C8.79085 12.603 9.82285 12.2375 10.5968 11.5065C11.3852 10.7755 11.7793 9.765 11.7793 8.475C11.7793 7.185 11.3852 6.1745 10.5968 5.4435C9.82285 4.7125 8.79085 4.347 7.50085 4.347H4.81335V12.603H7.50085ZM30.5955 0.949999V16H26.4675V14.28C25.9802 14.9393 25.3639 15.441 24.6185 15.785C23.8732 16.129 23.0347 16.301 22.103 16.301C20.3257 16.301 18.9425 15.7348 17.9535 14.6025C16.9645 13.4558 16.47 11.829 16.47 9.722V0.949999H20.727V9.593C20.727 10.6537 20.9635 11.4492 21.4365 11.9795C21.9239 12.5098 22.5832 12.775 23.4145 12.775C24.2889 12.775 24.9912 12.4883 25.5215 11.915C26.0662 11.3417 26.3385 10.496 26.3385 9.378V0.949999H30.5955ZM37.6049 12.001H35.2829V16H31.0259V0.949999H37.9059C39.2675 0.949999 40.45 1.17933 41.4534 1.638C42.4567 2.08233 43.2307 2.72733 43.7754 3.573C44.32 4.40433 44.5924 5.38617 44.5924 6.5185C44.5924 7.60783 44.3344 8.561 43.8184 9.378C43.3167 10.1807 42.5929 10.8113 41.6469 11.27L44.8934 16H40.3354L37.6049 12.001ZM40.2924 6.5185C40.2924 5.81617 40.0702 5.2715 39.6259 4.8845C39.1815 4.4975 38.5222 4.304 37.6479 4.304H35.2829V8.7115H37.6479C38.5222 8.7115 39.1815 8.52517 39.6259 8.1525C40.0702 7.7655 40.2924 7.22083 40.2924 6.5185ZM48.2739 18.451C47.1702 18.451 46.1669 18.2575 45.2639 17.8705C44.3752 17.4978 43.6442 16.9532 43.0709 16.2365L45.3714 13.4845C46.1741 14.5308 47.0341 15.054 47.9514 15.054C48.5821 15.054 49.0551 14.8677 49.3704 14.495C49.7001 14.1223 49.8649 13.5777 49.8649 12.861V4.2395H44.6619V0.949999H54.0789V12.603C54.0789 14.5523 53.5844 16.0143 52.5954 16.989C51.6207 17.9637 50.1802 18.451 48.2739 18.451ZM61.6182 0.648999C63.0372 0.648999 64.2842 0.935666 65.3592 1.509C66.4485 2.068 67.287 2.89217 67.8747 3.9815C68.4767 5.0565 68.7777 6.35367 68.7777 7.873V16H64.5207V12.6675H58.6512V16H54.4587V7.873C54.4587 6.35367 54.7525 5.0565 55.3402 3.9815C55.9422 2.89217 56.7807 2.068 57.8557 1.509C58.945 0.935666 60.1992 0.648999 61.6182 0.648999ZM64.5207 9.378V7.5075C64.5207 6.40383 64.2555 5.5725 63.7252 5.0135C63.1949 4.4545 62.4854 4.175 61.5967 4.175C60.6937 4.175 59.977 4.4545 59.4467 5.0135C58.9164 5.5725 58.6512 6.40383 58.6512 7.5075V9.378H64.5207ZM86.901 0.648999C88.6784 0.648999 90.0615 1.17933 91.0505 2.24C92.0539 3.28633 92.5555 4.80567 92.5555 6.798V16H88.2985V6.927C88.2985 6.024 88.062 5.34317 87.589 4.8845C87.116 4.4115 86.4854 4.175 85.697 4.175C84.8514 4.175 84.1777 4.42583 83.676 4.9275C83.1887 5.41483 82.945 6.153 82.945 7.142V16H78.688V6.927C78.688 6.024 78.4659 5.34317 78.0215 4.8845C77.5915 4.4115 76.9967 4.175 76.237 4.175C75.42 4.175 74.7679 4.42583 74.2805 4.9275C73.7932 5.41483 73.5495 6.153 73.5495 7.142V16H69.2925V0.949999H73.4205V2.627C73.8792 1.982 74.4669 1.49467 75.1835 1.165C75.9145 0.820999 76.7602 0.648999 77.7205 0.648999C78.7095 0.648999 79.5695 0.828166 80.3005 1.1865C81.0459 1.54483 81.6479 2.068 82.1065 2.756C82.6225 2.068 83.2962 1.54483 84.1275 1.1865C84.9589 0.828166 85.8834 0.648999 86.901 0.648999Z" fill="white"/>
</svg>
