<svg width="76" height="76" viewBox="0 0 76 76" fill="none" xmlns="http://www.w3.org/2000/svg">
<path d="M63.3333 29.6146C63.3333 14.25 48.2885 3.16663 31.6667 3.16663C14.9435 3.16663 0 14.3323 0 29.6146C0 35.0328 1.9475 40.3528 5.39917 44.4821C5.548 49.3176 2.70433 56.2558 0.139333 61.3035C7.00467 60.0653 16.7707 57.3198 21.1945 54.606C45.5683 60.5498 63.3333 45.6063 63.3333 29.6146ZM17.4167 33.9846C15.2348 33.9846 13.4583 32.2113 13.4583 30.0263C13.4583 27.8413 15.2348 26.068 17.4167 26.068C19.5985 26.068 21.375 27.8413 21.375 30.0263C21.375 32.2113 19.5985 33.9846 17.4167 33.9846ZM31.6667 33.9846C29.4848 33.9846 27.7083 32.2113 27.7083 30.0263C27.7083 27.8413 29.4848 26.068 31.6667 26.068C33.8485 26.068 35.625 27.8413 35.625 30.0263C35.625 32.2113 33.8485 33.9846 31.6667 33.9846ZM45.9167 33.9846C43.7348 33.9846 41.9583 32.2113 41.9583 30.0263C41.9583 27.8413 43.7348 26.068 45.9167 26.068C48.0985 26.068 49.875 27.8413 49.875 30.0263C49.875 32.2113 48.0985 33.9846 45.9167 33.9846ZM72.4628 61.8165C72.371 64.9863 74.2298 69.5273 75.9082 72.8333C71.4147 72.0163 65.0212 70.224 62.1268 68.4475C51.471 71.0378 42.7658 67.5291 38.1457 61.7975C52.5762 59.7075 64.2422 50.5336 68.1942 38.5478C72.8808 41.648 76 46.436 76 52.0821C76 55.6288 74.7238 59.1153 72.4628 61.8165Z" fill="#C65A7F"/>
</svg>
