<svg width="80" height="80" viewBox="0 0 80 80" fill="none" xmlns="http://www.w3.org/2000/svg">
<path d="M60 33.3333C60 44.3633 51.03 53.3333 40 53.3333C28.97 53.3333 20 44.3633 20 33.3333C20 22.3033 28.97 13.3333 40 13.3333C51.03 13.3333 60 22.3033 60 33.3333ZM73.3333 39.1233L67.0166 43.0167L69.3066 50L62.0166 51.5333L61.7533 58.8667L54.3766 57.8533L51.5766 64.6533L44.9866 61.2167L40 66.6667L35.01 61.22L28.42 64.6567L25.62 57.8567L18.2433 58.87L17.98 51.5367L10.6933 50L12.9833 43.0167L6.66665 39.1233L11.2466 33.3333L6.66665 27.5433L12.9833 23.65L10.6933 16.6667L17.9833 15.1333L18.2466 7.8L25.6233 8.81333L28.4233 2.01333L35.0133 5.45L40 0L44.99 5.44667L51.58 2.01L54.38 8.81L61.7566 7.79667L62.02 15.13L69.3066 16.6667L67.0166 23.65L73.3333 27.5433L68.7533 33.3333L73.3333 39.1233ZM63.3333 33.3333C63.3333 20.4467 52.8867 10 40 10C27.1133 10 16.6666 20.4467 16.6666 33.3333C16.6666 46.22 27.1133 56.6667 40 56.6667C52.8867 56.6667 63.3333 46.22 63.3333 33.3333ZM57.1367 67.5867L65.14 80L68.96 73.3333H76.6666L67.8167 59.6567C64.76 62.8867 61.1533 65.5733 57.1367 67.5867ZM12.1833 59.6567L3.33331 73.3333H11.04L14.86 80L22.8633 67.5867C18.8466 65.5733 15.24 62.8867 12.1833 59.6567Z" fill="#C65A7F"/>
</svg>
